<svg width="24" height="24" viewBox="0 0 24 24" fill="none" xmlns="http://www.w3.org/2000/svg">
  <path d="M12 22C17.5228 22 22 17.5228 22 12C22 6.47715 17.5228 2 12 2C6.47715 2 2 6.47715 2 12C2 17.5228 6.47715 22 12 22Z" fill="#8B5CF6"/>
  <path d="M8 14C8.7364 14 9.33333 13.4031 9.33333 12.6667C9.33333 11.9303 8.7364 11.3333 8 11.3333C7.2636 11.3333 6.66667 11.9303 6.66667 12.6667C6.66667 13.4031 7.2636 14 8 14Z" fill="white"/>
  <path d="M16 14C16.7364 14 17.3333 13.4031 17.3333 12.6667C17.3333 11.9303 16.7364 11.3333 16 11.3333C15.2636 11.3333 14.6667 11.9303 14.6667 12.6667C14.6667 13.4031 15.2636 14 16 14Z" fill="white"/>
  <path d="M15.5 17C15.5 17 14.5 19 12 19C9.5 19 8.5 17 8.5 17" stroke="white" stroke-width="1.5" stroke-linecap="round"/>
</svg>